<mxfile host="app.diagrams.net" agent="Mozilla/5.0 (Windows NT 10.0; Win64; x64) AppleWebKit/537.36 (KHTML, like Gecko) Chrome/129.0.0.0 Safari/537.36" version="24.7.12">
  <diagram id="p03p7jnwcLWSS_ZxrSKD" name="Page-1">
    <mxGraphModel dx="6954" dy="1944" grid="1" gridSize="10" guides="1" tooltips="1" connect="1" arrows="1" fold="1" page="0" pageScale="1" pageWidth="1100" pageHeight="850" background="none" math="0" shadow="0">
      <root>
        <mxCell id="0" />
        <mxCell id="1" parent="0" />
        <mxCell id="jssxZVPh9Sf1eZcy3YB8-15" style="edgeStyle=orthogonalEdgeStyle;rounded=0;orthogonalLoop=1;jettySize=auto;html=1;entryX=0.5;entryY=0;entryDx=0;entryDy=0;" edge="1" parent="1" source="node10" target="node14">
          <mxGeometry relative="1" as="geometry" />
        </mxCell>
        <mxCell id="jssxZVPh9Sf1eZcy3YB8-16" style="edgeStyle=orthogonalEdgeStyle;rounded=0;orthogonalLoop=1;jettySize=auto;html=1;entryX=0.5;entryY=0;entryDx=0;entryDy=0;" edge="1" parent="1" source="node10" target="node1">
          <mxGeometry relative="1" as="geometry" />
        </mxCell>
        <mxCell id="jssxZVPh9Sf1eZcy3YB8-17" style="edgeStyle=orthogonalEdgeStyle;rounded=0;orthogonalLoop=1;jettySize=auto;html=1;exitX=0.5;exitY=1;exitDx=0;exitDy=0;entryX=0.5;entryY=0;entryDx=0;entryDy=0;" edge="1" parent="1" source="node10" target="node19">
          <mxGeometry relative="1" as="geometry" />
        </mxCell>
        <mxCell id="jssxZVPh9Sf1eZcy3YB8-18" style="edgeStyle=orthogonalEdgeStyle;rounded=0;orthogonalLoop=1;jettySize=auto;html=1;exitX=0.5;exitY=1;exitDx=0;exitDy=0;entryX=0.5;entryY=0;entryDx=0;entryDy=0;" edge="1" parent="1" source="node10" target="node5">
          <mxGeometry relative="1" as="geometry" />
        </mxCell>
        <mxCell id="jssxZVPh9Sf1eZcy3YB8-19" style="edgeStyle=orthogonalEdgeStyle;rounded=0;orthogonalLoop=1;jettySize=auto;html=1;entryX=0.5;entryY=0;entryDx=0;entryDy=0;" edge="1" parent="1" source="node10" target="node8">
          <mxGeometry relative="1" as="geometry" />
        </mxCell>
        <mxCell id="jssxZVPh9Sf1eZcy3YB8-27" style="edgeStyle=orthogonalEdgeStyle;rounded=0;orthogonalLoop=1;jettySize=auto;html=1;entryX=0.5;entryY=0;entryDx=0;entryDy=0;" edge="1" parent="1" source="node10" target="node2">
          <mxGeometry relative="1" as="geometry" />
        </mxCell>
        <mxCell id="jssxZVPh9Sf1eZcy3YB8-28" style="edgeStyle=orthogonalEdgeStyle;rounded=0;orthogonalLoop=1;jettySize=auto;html=1;entryX=0.5;entryY=0;entryDx=0;entryDy=0;" edge="1" parent="1" source="node10" target="node18">
          <mxGeometry relative="1" as="geometry" />
        </mxCell>
        <mxCell id="node10" value="&lt;p style=&quot;margin:0px;margin-top:4px;text-align:center;&quot;&gt;&lt;b&gt;BaseActivity&lt;/b&gt;&lt;/p&gt;&lt;hr size=&quot;1&quot;/&gt;&lt;p style=&quot;margin:0 0 0 4px;line-height:1.6;&quot;&gt;+ showLogoutDialog(): void&lt;br/&gt;# onCreate(Bundle): void&lt;br/&gt;- setStatusBarColor(int): void&lt;br/&gt;+ setStatusBarColorBasedOnTheme(): void&lt;/p&gt;" style="verticalAlign=top;align=left;overflow=fill;fontSize=14;fontFamily=Helvetica;html=1;rounded=0;shadow=0;comic=0;labelBackgroundColor=none;strokeWidth=1;" parent="1" vertex="1">
          <mxGeometry x="-2822" y="90" width="332" height="155" as="geometry" />
        </mxCell>
        <mxCell id="node16" value="&lt;p style=&quot;margin:0px;margin-top:4px;text-align:center;&quot;&gt;&lt;b&gt;BottomSheetFragment&lt;/b&gt;&lt;/p&gt;&lt;hr size=&quot;1&quot;/&gt;&lt;p style=&quot;margin:0 0 0 4px;line-height:1.6;&quot;&gt;- vacationTitle: String&lt;br/&gt;- VACATION_ID: String&lt;br/&gt;- VACATION_END_DATE: String&lt;br/&gt;- repository: Repository&lt;br/&gt;- endDate: String&lt;br/&gt;- VACATION_TITLE: String&lt;br/&gt;- VACATION_START_DATE: String&lt;br/&gt;- HOTEL_NAME: String&lt;br/&gt;- vacationID: int&lt;br/&gt;- hotelName: String&lt;br/&gt;- startDate: String&lt;/p&gt;&lt;hr size=&quot;1&quot;/&gt;&lt;p style=&quot;margin:0 0 0 4px;line-height:1.6;&quot;&gt;+ onStart(): void&lt;br/&gt;+ onCreateView(LayoutInflater, ViewGroup, Bundle): View&lt;br/&gt;+ newInstance(int, String, String, String, String): BottomSheetFragment&lt;/p&gt;" style="verticalAlign=top;align=left;overflow=fill;fontSize=14;fontFamily=Helvetica;html=1;rounded=0;shadow=0;comic=0;labelBackgroundColor=none;strokeWidth=1;" parent="1" vertex="1">
          <mxGeometry x="-3780" y="620" width="460" height="380" as="geometry" />
        </mxCell>
        <mxCell id="node4" value="&lt;p style=&quot;margin:0px;margin-top:4px;text-align:center;&quot;&gt;&lt;b&gt;DatabaseBuilder&lt;/b&gt;&lt;/p&gt;&lt;hr size=&quot;1&quot;/&gt;&lt;p style=&quot;margin:0 0 0 4px;line-height:1.6;&quot;&gt;- INSTANCE: DatabaseBuilder&lt;/p&gt;&lt;hr size=&quot;1&quot;/&gt;&lt;p style=&quot;margin:0 0 0 4px;line-height:1.6;&quot;&gt;+ excursionDAO(): ExcursionDAO&lt;br/&gt;~ getDatabase(Context): DatabaseBuilder&lt;br/&gt;+ vacationDAO(): VacationDAO&lt;/p&gt;" style="verticalAlign=top;align=left;overflow=fill;fontSize=14;fontFamily=Helvetica;html=1;rounded=0;shadow=0;comic=0;labelBackgroundColor=none;strokeWidth=1;" parent="1" vertex="1">
          <mxGeometry x="-1490" y="-610" width="332" height="156" as="geometry" />
        </mxCell>
        <mxCell id="node15" value="&lt;p style=&quot;margin:0px;margin-top:4px;text-align:center;&quot;&gt;&lt;b&gt;DateValidator&lt;/b&gt;&lt;/p&gt;&lt;hr size=&quot;1&quot;/&gt;&lt;p style=&quot;margin:0 0 0 4px;line-height:1.6;&quot;&gt;+ isDateBefore(String, String): boolean&lt;br/&gt;+ isDateBetween(String, String, String): boolean&lt;br/&gt;+ normalizeDate(String): String&lt;br/&gt;+ isDateOnOrAfterCurrentDate(String): boolean&lt;/p&gt;" style="verticalAlign=top;align=left;overflow=fill;fontSize=14;fontFamily=Helvetica;html=1;rounded=0;shadow=0;comic=0;labelBackgroundColor=none;strokeWidth=1;" parent="1" vertex="1">
          <mxGeometry x="-1430" y="-180" width="404" height="155" as="geometry" />
        </mxCell>
        <mxCell id="node3" value="&lt;p style=&quot;margin:0px;margin-top:4px;text-align:center;&quot;&gt;&lt;b&gt;Excursion&lt;/b&gt;&lt;/p&gt;&lt;hr size=&quot;1&quot;/&gt;&lt;p style=&quot;margin:0 0 0 4px;line-height:1.6;&quot;&gt;- id: int&lt;br/&gt;- vacationID: int&lt;br/&gt;- excursionTitle: String&lt;br/&gt;- excursionDate: String&lt;/p&gt;&lt;hr size=&quot;1&quot;/&gt;&lt;p style=&quot;margin:0 0 0 4px;line-height:1.6;&quot;&gt;+ setExcursionTitle(String): void&lt;br/&gt;+ getId(): int&lt;br/&gt;+ setExcursionDate(String): void&lt;br/&gt;+ setVacationID(int): void&lt;br/&gt;+ setId(int): void&lt;br/&gt;+ getVacationID(): int&lt;br/&gt;+ getExcursionDate(): String&lt;br/&gt;+ getExcursionTitle(): String&lt;/p&gt;" style="verticalAlign=top;align=left;overflow=fill;fontSize=14;fontFamily=Helvetica;html=1;rounded=0;shadow=0;comic=0;labelBackgroundColor=none;strokeWidth=1;" parent="1" vertex="1">
          <mxGeometry x="-2780" y="-610" width="284" height="400" as="geometry" />
        </mxCell>
        <mxCell id="node11" value="&lt;p style=&quot;margin:0px;margin-top:4px;text-align:center;&quot;&gt;&lt;b&gt;ExcursionAdapter&lt;/b&gt;&lt;/p&gt;&lt;hr size=&quot;1&quot;/&gt;&lt;p style=&quot;margin:0 0 0 4px;line-height:1.6;&quot;&gt;- inflater: LayoutInflater&lt;br/&gt;- excursions: List&amp;lt;Excursion&amp;gt;&lt;br/&gt;- context: Context&lt;/p&gt;&lt;hr size=&quot;1&quot;/&gt;&lt;p style=&quot;margin:0 0 0 4px;line-height:1.6;&quot;&gt;+ onBindViewHolder(ExcursionViewHolder, int): void&lt;br/&gt;+ getItemCount(): int&lt;br/&gt;+ setExcursions(List&amp;lt;Excursion&amp;gt;): void&lt;br/&gt;+ getExcursions(): List&amp;lt;Excursion&amp;gt;&lt;br/&gt;+ onCreateViewHolder(ViewGroup, int): ExcursionViewHolder&lt;/p&gt;" style="verticalAlign=top;align=left;overflow=fill;fontSize=14;fontFamily=Helvetica;html=1;rounded=0;shadow=0;comic=0;labelBackgroundColor=none;strokeWidth=1;" parent="1" vertex="1">
          <mxGeometry x="-2885" y="870" width="400" height="240" as="geometry" />
        </mxCell>
        <mxCell id="jssxZVPh9Sf1eZcy3YB8-26" style="edgeStyle=orthogonalEdgeStyle;rounded=0;orthogonalLoop=1;jettySize=auto;html=1;entryX=0.5;entryY=1;entryDx=0;entryDy=0;" edge="1" parent="1" source="node2" target="node7">
          <mxGeometry relative="1" as="geometry" />
        </mxCell>
        <mxCell id="node2" value="&lt;p style=&quot;margin:0px;margin-top:4px;text-align:center;&quot;&gt;&lt;b&gt;ExcursionAlert&lt;/b&gt;&lt;/p&gt;&lt;hr size=&quot;1&quot;/&gt;&lt;p style=&quot;margin:0 0 0 4px;line-height:1.6;&quot;&gt;- REQUEST_CODE: int&lt;/p&gt;&lt;hr size=&quot;1&quot;/&gt;&lt;p style=&quot;margin:0 0 0 4px;line-height:1.6;&quot;&gt;- createNotificationChannel(): void&lt;br/&gt;- handleSetAlertsButtonClick(): void&lt;br/&gt;+ onRequestPermissionsResult(int, String[], int[]): void&lt;br/&gt;# onResume(): void&lt;br/&gt;- scheduleNotification(String): void&lt;br/&gt;+ onOptionsItemSelected(MenuItem): boolean&lt;br/&gt;# onCreate(Bundle): void&lt;br/&gt;+ onCreateOptionsMenu(Menu): boolean&lt;br/&gt;- setNotificationAlarm(long): void&lt;/p&gt;" style="verticalAlign=top;align=left;overflow=fill;fontSize=14;fontFamily=Helvetica;html=1;rounded=0;shadow=0;comic=0;labelBackgroundColor=none;strokeWidth=1;" parent="1" vertex="1">
          <mxGeometry x="-2300" y="770" width="468" height="324" as="geometry" />
        </mxCell>
        <mxCell id="node13" value="&lt;p style=&quot;margin:0px;margin-top:4px;text-align:center;&quot;&gt;&lt;i&gt;&amp;lt;&amp;lt;interface&amp;gt;&amp;gt;&lt;/i&gt;&lt;br/&gt;&lt;b&gt;ExcursionDAO&lt;/b&gt;&lt;/p&gt;&lt;hr size=&quot;1&quot;/&gt;&lt;p style=&quot;margin:0 0 0 4px;line-height:1.6;&quot;&gt;+ deleteAllAssociatedExcursions(int): void&lt;br/&gt;+ getExcursionByID(int): LiveData&amp;lt;Excursion&amp;gt;&lt;br/&gt;+ update(Excursion): void&lt;br/&gt;+ delete(Excursion): void&lt;br/&gt;+ getAllExcursions(): LiveData&amp;lt;List&amp;lt;Excursion&amp;gt;&amp;gt;&lt;br/&gt;+ insert(Excursion): void&lt;br/&gt;+ getAssociatedExcursions(int): LiveData&amp;lt;List&amp;lt;Excursion&amp;gt;&amp;gt;&lt;br/&gt;+ excursionExists(int): LiveData&amp;lt;Boolean&amp;gt;&lt;/p&gt;" style="verticalAlign=top;align=left;overflow=fill;fontSize=14;fontFamily=Helvetica;html=1;rounded=0;shadow=0;comic=0;labelBackgroundColor=none;strokeWidth=1;" parent="1" vertex="1">
          <mxGeometry x="-1920" y="-360" width="410" height="267" as="geometry" />
        </mxCell>
        <mxCell id="node18" value="&lt;p style=&quot;margin:0px;margin-top:4px;text-align:center;&quot;&gt;&lt;b&gt;ExcursionDetails&lt;/b&gt;&lt;/p&gt;&lt;hr size=&quot;1&quot;/&gt;&lt;p style=&quot;margin:0 0 0 4px;line-height:1.6;&quot;&gt;- dateValidator: DateValidator&lt;br/&gt;- repository: Repository&lt;br/&gt;- btnPickExcursionDate: Button&lt;br/&gt;- etvExcursionTitle: EditText&lt;/p&gt;&lt;hr size=&quot;1&quot;/&gt;&lt;p style=&quot;margin:0 0 0 4px;line-height:1.6;&quot;&gt;- handleSaveButtonClick(int, int): void&lt;br/&gt;+ onCreateOptionsMenu(Menu): boolean&lt;br/&gt;- handleAlertButtonClick(): void&lt;br/&gt;- isValidExcursion(String, String, String, String): boolean&lt;br/&gt;+ onOptionsItemSelected(MenuItem): boolean&lt;br/&gt;- showDatePickerDialog(Button): void&lt;br/&gt;- handleDeleteButtonClick(int): void&lt;br/&gt;# onCreate(Bundle): void&lt;br/&gt;# onResume(): void&lt;/p&gt;" style="verticalAlign=top;align=left;overflow=fill;fontSize=14;fontFamily=Helvetica;html=1;rounded=0;shadow=0;comic=0;labelBackgroundColor=none;strokeWidth=1;" parent="1" vertex="1">
          <mxGeometry x="-1710" y="300" width="370" height="360" as="geometry" />
        </mxCell>
        <mxCell id="node14" value="&lt;p style=&quot;margin:0px;margin-top:4px;text-align:center;&quot;&gt;&lt;b&gt;LoginActivity&lt;/b&gt;&lt;/p&gt;&lt;hr size=&quot;1&quot;/&gt;&lt;p style=&quot;margin:0 0 0 4px;line-height:1.6;&quot;&gt;- passwordField: EditText&lt;br/&gt;- mAuth: FirebaseAuth&lt;br/&gt;- emailField: EditText&lt;/p&gt;&lt;hr size=&quot;1&quot;/&gt;&lt;p style=&quot;margin:0 0 0 4px;line-height:1.6;&quot;&gt;- loginUser(): void&lt;br/&gt;+ onCreateOptionsMenu(Menu): boolean&lt;br/&gt;# onStart(): void&lt;br/&gt;# onCreate(Bundle): void&lt;br/&gt;- signUpUser(): void&lt;br/&gt;# onResume(): void&lt;/p&gt;" style="verticalAlign=top;align=left;overflow=fill;fontSize=14;fontFamily=Helvetica;html=1;rounded=0;shadow=0;comic=0;labelBackgroundColor=none;strokeWidth=1;" parent="1" vertex="1">
          <mxGeometry x="-3530" y="300" width="270" height="270" as="geometry" />
        </mxCell>
        <mxCell id="node7" value="&lt;p style=&quot;margin:0px;margin-top:4px;text-align:center;&quot;&gt;&lt;b&gt;NotificationReceiver&lt;/b&gt;&lt;/p&gt;&lt;hr size=&quot;1&quot;/&gt;&lt;p style=&quot;margin:0 0 0 4px;line-height:1.6;&quot;&gt;+ onReceive(Context, Intent): void&lt;/p&gt;" style="verticalAlign=top;align=left;overflow=fill;fontSize=14;fontFamily=Helvetica;html=1;rounded=0;shadow=0;comic=0;labelBackgroundColor=none;strokeWidth=1;" parent="1" vertex="1">
          <mxGeometry x="-2444" y="660" width="292" height="77" as="geometry" />
        </mxCell>
        <mxCell id="node17" value="&lt;p style=&quot;margin:0px;margin-top:4px;text-align:center;&quot;&gt;&lt;b&gt;Repository&lt;/b&gt;&lt;/p&gt;&lt;hr size=&quot;1&quot;/&gt;&lt;p style=&quot;margin:0 0 0 4px;line-height:1.6;&quot;&gt;- NUMBER_OF_THREADS: int&lt;br/&gt;- excursionDAO: ExcursionDAO&lt;br/&gt;~ databaseExecutor: ExecutorService&lt;br/&gt;- vacationDAO: VacationDAO&lt;/p&gt;&lt;hr size=&quot;1&quot;/&gt;&lt;p style=&quot;margin:0 0 0 4px;line-height:1.6;&quot;&gt;+ delete(Excursion): void&lt;br/&gt;+ getLastInsertedVacation(): LiveData&amp;lt;Integer&amp;gt;&lt;br/&gt;+ getVacationByID(int): LiveData&amp;lt;Vacation&amp;gt;&lt;br/&gt;+ getAssociatedExcursions(int): LiveData&amp;lt;List&amp;lt;Excursion&amp;gt;&amp;gt;&lt;br/&gt;+ delete(Vacation): void&lt;br/&gt;+ getAllVacations(): LiveData&amp;lt;List&amp;lt;Vacation&amp;gt;&amp;gt;&lt;br/&gt;+ vacationExists(int): LiveData&amp;lt;Boolean&amp;gt;&lt;br/&gt;+ insert(Excursion): void&lt;br/&gt;+ update(Vacation): void&lt;br/&gt;+ getAllExcursions(): LiveData&amp;lt;List&amp;lt;Excursion&amp;gt;&amp;gt;&lt;br/&gt;+ getExcursionByID(int): LiveData&amp;lt;Excursion&amp;gt;&lt;br/&gt;+ deleteAllAssociatedExcursions(int): void&lt;br/&gt;+ excursionExists(int): LiveData&amp;lt;Boolean&amp;gt;&lt;br/&gt;+ update(Excursion): void&lt;br/&gt;+ insert(Vacation): void&lt;/p&gt;" style="verticalAlign=top;align=left;overflow=fill;fontSize=14;fontFamily=Helvetica;html=1;rounded=0;shadow=0;comic=0;labelBackgroundColor=none;strokeWidth=1;" parent="1" vertex="1">
          <mxGeometry x="-2340" y="-610" width="390" height="500" as="geometry" />
        </mxCell>
        <mxCell id="node9" value="&lt;p style=&quot;margin:0px;margin-top:4px;text-align:center;&quot;&gt;&lt;b&gt;Vacation&lt;/b&gt;&lt;/p&gt;&lt;hr size=&quot;1&quot;/&gt;&lt;p style=&quot;margin:0 0 0 4px;line-height:1.6;&quot;&gt;- id: int&lt;br/&gt;- startDate: String&lt;br/&gt;- vacationTitle: String&lt;br/&gt;- endDate: String&lt;br/&gt;- hotelName: String&lt;/p&gt;&lt;hr size=&quot;1&quot;/&gt;&lt;p style=&quot;margin:0 0 0 4px;line-height:1.6;&quot;&gt;+ getVacationTitle(): String&lt;br/&gt;+ getStartDate(): String&lt;br/&gt;+ setEndDate(String): void&lt;br/&gt;+ getHotelName(): String&lt;br/&gt;+ setStartDate(String): void&lt;br/&gt;+ setVacationTitle(String): void&lt;br/&gt;+ getId(): int&lt;br/&gt;+ setId(int): void&lt;br/&gt;+ setHotelName(String): void&lt;br/&gt;+ getEndDate(): String&lt;/p&gt;" style="verticalAlign=top;align=left;overflow=fill;fontSize=14;fontFamily=Helvetica;html=1;rounded=0;shadow=0;comic=0;labelBackgroundColor=none;strokeWidth=1;" parent="1" vertex="1">
          <mxGeometry x="-3180" y="-610" width="276" height="400" as="geometry" />
        </mxCell>
        <mxCell id="node12" value="&lt;p style=&quot;margin:0px;margin-top:4px;text-align:center;&quot;&gt;&lt;b&gt;VacationAdapter&lt;/b&gt;&lt;/p&gt;&lt;hr size=&quot;1&quot;/&gt;&lt;p style=&quot;margin:0 0 0 4px;line-height:1.6;&quot;&gt;- vacations: List&amp;lt;Vacation&amp;gt;&lt;br/&gt;- context: Context&lt;br/&gt;- inflater: LayoutInflater&lt;br/&gt;- filteredVacations: List&amp;lt;Vacation&amp;gt;&lt;/p&gt;&lt;hr size=&quot;1&quot;/&gt;&lt;p style=&quot;margin:0 0 0 4px;line-height:1.6;&quot;&gt;+ onCreateViewHolder(ViewGroup, int): VacationViewHolder&lt;br/&gt;+ onBindViewHolder(VacationViewHolder, int): void&lt;br/&gt;+ setVacations(List&amp;lt;Vacation&amp;gt;): void&lt;br/&gt;+ getItemCount(): int&lt;br/&gt;+ filter(String): void&lt;/p&gt;" style="verticalAlign=top;align=left;overflow=fill;fontSize=14;fontFamily=Helvetica;html=1;rounded=0;shadow=0;comic=0;labelBackgroundColor=none;strokeWidth=1;" parent="1" vertex="1">
          <mxGeometry x="-3292" y="620" width="388" height="260" as="geometry" />
        </mxCell>
        <mxCell id="jssxZVPh9Sf1eZcy3YB8-24" style="edgeStyle=orthogonalEdgeStyle;rounded=0;orthogonalLoop=1;jettySize=auto;html=1;entryX=0.5;entryY=0;entryDx=0;entryDy=0;" edge="1" parent="1" source="node5" target="node7">
          <mxGeometry relative="1" as="geometry" />
        </mxCell>
        <mxCell id="node5" value="&lt;p style=&quot;margin:0px;margin-top:4px;text-align:center;&quot;&gt;&lt;b&gt;VacationAlert&lt;/b&gt;&lt;/p&gt;&lt;hr size=&quot;1&quot;/&gt;&lt;p style=&quot;margin:0 0 0 4px;line-height:1.6;&quot;&gt;- REQUEST_CODE: int&lt;br/&gt;~ excursionAdapter: ExcursionAdapter&lt;/p&gt;&lt;hr size=&quot;1&quot;/&gt;&lt;p style=&quot;margin:0 0 0 4px;line-height:1.6;&quot;&gt;- createNotificationChannel(): void&lt;br/&gt;+ onCreateOptionsMenu(Menu): boolean&lt;br/&gt;# onCreate(Bundle): void&lt;br/&gt;- scheduleNotification(String, String, int): void&lt;br/&gt;# onResume(): void&lt;br/&gt;- handleSetAlertButtonClick(): void&lt;br/&gt;- setNotificationAlarm(long, String, int): void&lt;br/&gt;+ onOptionsItemSelected(MenuItem): boolean&lt;br/&gt;+ onRequestPermissionsResult(int, String[], int[]): void&lt;/p&gt;" style="verticalAlign=top;align=left;overflow=fill;fontSize=14;fontFamily=Helvetica;html=1;rounded=0;shadow=0;comic=0;labelBackgroundColor=none;strokeWidth=1;" parent="1" vertex="1">
          <mxGeometry x="-2444" y="300" width="360" height="310" as="geometry" />
        </mxCell>
        <mxCell id="node6" value="&lt;p style=&quot;margin:0px;margin-top:4px;text-align:center;&quot;&gt;&lt;i&gt;&amp;lt;&amp;lt;interface&amp;gt;&amp;gt;&lt;/i&gt;&lt;br/&gt;&lt;b&gt;VacationDAO&lt;/b&gt;&lt;/p&gt;&lt;hr size=&quot;1&quot;/&gt;&lt;p style=&quot;margin:0 0 0 4px;line-height:1.6;&quot;&gt;+ insert(Vacation): void&lt;br/&gt;+ getLastInsertedVacationID(): LiveData&amp;lt;Integer&amp;gt;&lt;br/&gt;+ getAllVacations(): LiveData&amp;lt;List&amp;lt;Vacation&amp;gt;&amp;gt;&lt;br/&gt;+ getVacationByID(int): LiveData&amp;lt;Vacation&amp;gt;&lt;br/&gt;+ delete(Vacation): void&lt;br/&gt;+ vacationExists(int): LiveData&amp;lt;Boolean&amp;gt;&lt;br/&gt;+ update(Vacation): void&lt;/p&gt;" style="verticalAlign=top;align=left;overflow=fill;fontSize=14;fontFamily=Helvetica;html=1;rounded=0;shadow=0;comic=0;labelBackgroundColor=none;strokeWidth=1;" parent="1" vertex="1">
          <mxGeometry x="-1920" y="-610" width="410" height="239" as="geometry" />
        </mxCell>
        <mxCell id="jssxZVPh9Sf1eZcy3YB8-23" style="edgeStyle=orthogonalEdgeStyle;rounded=0;orthogonalLoop=1;jettySize=auto;html=1;entryX=0.5;entryY=0;entryDx=0;entryDy=0;" edge="1" parent="1" source="node19" target="node11">
          <mxGeometry relative="1" as="geometry" />
        </mxCell>
        <mxCell id="node19" value="&lt;p style=&quot;margin:0px;margin-top:4px;text-align:center;&quot;&gt;&lt;b&gt;VacationDetails&lt;/b&gt;&lt;/p&gt;&lt;hr size=&quot;1&quot;/&gt;&lt;p style=&quot;margin:0 0 0 4px;line-height:1.6;&quot;&gt;~ excursionAdapter: ExcursionAdapter&lt;br/&gt;- swipeRefreshLayout: SwipeRefreshLayout&lt;br/&gt;- etvVacationTitle: EditText&lt;br/&gt;- btnPickStartDate: Button&lt;br/&gt;~ repository: Repository&lt;br/&gt;- etvHotelName: EditText&lt;br/&gt;- btnPickEndDate: Button&lt;br/&gt;- dateValidator: DateValidator&lt;/p&gt;&lt;hr size=&quot;1&quot;/&gt;&lt;p style=&quot;margin:0 0 0 4px;line-height:1.6;&quot;&gt;- isValidVacation(int, String, String, String, String): boolean&lt;br/&gt;- refreshVacationList(int): void&lt;br/&gt;- showDatePickerDialog(Button): void&lt;br/&gt;# onResume(): void&lt;br/&gt;+ onCreateOptionsMenu(Menu): boolean&lt;br/&gt;- handleSaveButtonClick(): void&lt;br/&gt;- handleDeleteButtonClick(int): void&lt;br/&gt;- handleAlertButtonClick(): void&lt;br/&gt;- handleShareButtonClick(): void&lt;br/&gt;# onCreate(Bundle): void&lt;br/&gt;- handleFabButtonClick(): void&lt;br/&gt;+ onOptionsItemSelected(MenuItem): boolean&lt;/p&gt;" style="verticalAlign=top;align=left;overflow=fill;fontSize=14;fontFamily=Helvetica;html=1;rounded=0;shadow=0;comic=0;labelBackgroundColor=none;strokeWidth=1;" parent="1" vertex="1">
          <mxGeometry x="-2880" y="300" width="390" height="510" as="geometry" />
        </mxCell>
        <mxCell id="jssxZVPh9Sf1eZcy3YB8-21" style="edgeStyle=orthogonalEdgeStyle;rounded=0;orthogonalLoop=1;jettySize=auto;html=1;entryX=0.5;entryY=0;entryDx=0;entryDy=0;" edge="1" parent="1" source="node1" target="node12">
          <mxGeometry relative="1" as="geometry" />
        </mxCell>
        <mxCell id="jssxZVPh9Sf1eZcy3YB8-22" style="edgeStyle=orthogonalEdgeStyle;rounded=0;orthogonalLoop=1;jettySize=auto;html=1;entryX=0.5;entryY=0;entryDx=0;entryDy=0;" edge="1" parent="1" source="node1" target="node16">
          <mxGeometry relative="1" as="geometry">
            <Array as="points">
              <mxPoint x="-3130" y="590" />
              <mxPoint x="-3550" y="590" />
            </Array>
          </mxGeometry>
        </mxCell>
        <mxCell id="node1" value="&lt;p style=&quot;margin:0px;margin-top:4px;text-align:center;&quot;&gt;&lt;b&gt;VacationList&lt;/b&gt;&lt;/p&gt;&lt;hr size=&quot;1&quot;/&gt;&lt;p style=&quot;margin:0 0 0 4px;line-height:1.6;&quot;&gt;~ repository: Repository&lt;br/&gt;~ vacationAdapter: VacationAdapter&lt;br/&gt;~ swipeRefreshLayout: SwipeRefreshLayout&lt;/p&gt;&lt;hr size=&quot;1&quot;/&gt;&lt;p style=&quot;margin:0 0 0 4px;line-height:1.6;&quot;&gt;+ onOptionsItemSelected(MenuItem): boolean&lt;br/&gt;~ refreshVacationList(): void&lt;br/&gt;# onCreate(Bundle): void&lt;br/&gt;# onResume(): void&lt;br/&gt;+ onCreateOptionsMenu(Menu): boolean&lt;/p&gt;" style="verticalAlign=top;align=left;overflow=fill;fontSize=14;fontFamily=Helvetica;html=1;rounded=0;shadow=0;comic=0;labelBackgroundColor=none;strokeWidth=1;" parent="1" vertex="1">
          <mxGeometry x="-3220" y="300" width="300" height="240" as="geometry" />
        </mxCell>
        <mxCell id="node8" value="&lt;p style=&quot;margin:0px;margin-top:4px;text-align:center;&quot;&gt;&lt;b&gt;VacationShare&lt;/b&gt;&lt;/p&gt;&lt;hr size=&quot;1&quot;/&gt;&lt;p style=&quot;margin:0 0 0 4px;line-height:1.6;&quot;&gt;~ excursionAdapter: ExcursionAdapter&lt;br/&gt;- etmlUserMessage: EditText&lt;/p&gt;&lt;hr size=&quot;1&quot;/&gt;&lt;p style=&quot;margin:0 0 0 4px;line-height:1.6;&quot;&gt;+ onOptionsItemSelected(MenuItem): boolean&lt;br/&gt;- handleShareEmailButtonClick(): void&lt;br/&gt;# onResume(): void&lt;br/&gt;+ onCreateOptionsMenu(Menu): boolean&lt;br/&gt;# onCreate(Bundle): void&lt;br/&gt;- constructEmailText(String, List&amp;lt;String&amp;gt;): String&lt;/p&gt;" style="verticalAlign=top;align=left;overflow=fill;fontSize=14;fontFamily=Helvetica;html=1;rounded=0;shadow=0;comic=0;labelBackgroundColor=none;strokeWidth=1;" parent="1" vertex="1">
          <mxGeometry x="-2050" y="300" width="320" height="250" as="geometry" />
        </mxCell>
        <mxCell id="jssxZVPh9Sf1eZcy3YB8-1" value="&lt;font style=&quot;font-size: 27px;&quot;&gt;Entities&lt;/font&gt;" style="text;html=1;align=center;verticalAlign=middle;resizable=0;points=[];autosize=1;strokeColor=none;fillColor=none;" vertex="1" parent="1">
          <mxGeometry x="-2890" y="-680" width="110" height="50" as="geometry" />
        </mxCell>
        <mxCell id="jssxZVPh9Sf1eZcy3YB8-2" value="&lt;font style=&quot;font-size: 27px;&quot;&gt;Classes/Activities&lt;/font&gt;" style="text;html=1;align=center;verticalAlign=middle;resizable=0;points=[];autosize=1;strokeColor=none;fillColor=none;" vertex="1" parent="1">
          <mxGeometry x="-2780" y="20" width="230" height="50" as="geometry" />
        </mxCell>
        <mxCell id="jssxZVPh9Sf1eZcy3YB8-3" value="&lt;font style=&quot;font-size: 27px;&quot;&gt;Database&lt;/font&gt;" style="text;html=1;align=center;verticalAlign=middle;resizable=0;points=[];autosize=1;strokeColor=none;fillColor=none;" vertex="1" parent="1">
          <mxGeometry x="-1874" y="-700" width="140" height="50" as="geometry" />
        </mxCell>
        <mxCell id="jssxZVPh9Sf1eZcy3YB8-8" value="Relation" style="endArrow=open;html=1;endSize=12;startArrow=diamondThin;startSize=14;startFill=0;edgeStyle=orthogonalEdgeStyle;rounded=0;" edge="1" parent="1">
          <mxGeometry relative="1" as="geometry">
            <mxPoint x="-2905" y="-400" as="sourcePoint" />
            <mxPoint x="-2780" y="-400" as="targetPoint" />
          </mxGeometry>
        </mxCell>
        <mxCell id="jssxZVPh9Sf1eZcy3YB8-9" value="&amp;nbsp; &amp;nbsp;ONE" style="edgeLabel;resizable=0;html=1;align=left;verticalAlign=top;" connectable="0" vertex="1" parent="jssxZVPh9Sf1eZcy3YB8-8">
          <mxGeometry x="-1" relative="1" as="geometry" />
        </mxCell>
        <mxCell id="jssxZVPh9Sf1eZcy3YB8-10" value="MANY&amp;nbsp; &amp;nbsp;" style="edgeLabel;resizable=0;html=1;align=right;verticalAlign=top;" connectable="0" vertex="1" parent="jssxZVPh9Sf1eZcy3YB8-8">
          <mxGeometry x="1" relative="1" as="geometry" />
        </mxCell>
      </root>
    </mxGraphModel>
  </diagram>
</mxfile>
